<svg xmlns="http://www.w3.org/2000/svg" xlink="http://www.w3.org/1999/xlink" viewBox="0 0 28 57" id="svg1467790476"><path d="M 26.253 45.806 C 25.237 49.66 22.186 52.105 19.136 53.633 C 16.527 54.94 13.989 55.54 12.904 55.769 C 12.535 54.946 12.236 53.79 12.032 52.4 C 11.799 50.804 11.697 48.942 11.744 47.008 C 11.838 43.125 12.529 39.033 13.892 36.257 C 14.538 34.94 14.982 33.702 15.252 32.531 C 15.297 32.347 15.335 32.162 15.368 31.979 C 15.623 30.618 15.642 29.347 15.475 28.147 L 15.473 28.117 L 15.466 28.038 L 15.459 28.039 C 15.394 27.604 15.304 27.174 15.191 26.75 C 14.466 24.049 12.83 21.749 11.075 19.571 C 9.398 17.49 9.062 15.345 9.75 13.989 C 9.966 13.564 10.302 13.182 10.774 12.889 C 11.791 12.47 12.878 12.269 13.999 12.344 C 14.459 12.391 14.959 12.479 15.5 12.612 C 18.709 13.402 20.617 15.297 21.705 17.338 C 22.803 19.399 23.061 21.61 22.94 22.967 C 22.474 28.185 23.815 31.413 25.041 34.363 C 25.119 34.551 25.197 34.737 25.274 34.923 C 25.912 36.472 26.475 37.953 26.722 39.664 C 26.969 41.367 26.907 43.324 26.253 45.806 M 8.092 54.737 C 6.557 53.733 5.065 52.174 3.854 50.31 C 3.219 49.334 2.679 48.301 2.24 47.223 L 2.258 47.222 C 2.124 44.951 2.216 42.142 4.195 39.641 C 4.966 38.772 5.877 37.816 7.214 37.079 C 8.543 36.347 10.326 35.816 12.853 35.869 C 11.423 38.846 10.736 43.069 10.641 46.981 C 10.593 48.967 10.697 50.893 10.941 52.562 C 11.131 53.857 11.409 55.024 11.782 55.948 C 10.636 55.998 9.37 55.572 8.092 54.737 M 1.861 37.925 C 2.725 35.92 3.463 34.56 4.036 33.535 C 4.107 33.409 4.177 33.286 4.244 33.167 C 4.708 32.345 5.079 31.687 5.274 31.059 C 5.333 30.868 5.377 30.68 5.404 30.491 C 5.76 31.182 6.09 31.901 6.313 32.621 C 6.575 33.467 6.68 34.28 6.533 35.027 C 6.388 35.759 5.994 36.474 5.173 37.124 C 4.442 37.704 3.838 38.313 3.341 38.939 C 3.283 39.004 3.227 39.069 3.171 39.132 L 3.183 39.143 C 2.039 40.661 1.499 42.27 1.268 43.795 C 0.942 41.76 1.084 39.731 1.861 37.925 M 5.93 17.342 C 6.619 16.169 7.477 15.134 8.456 14.313 C 8.286 14.965 8.266 15.674 8.384 16.405 C 7.285 16.702 6.487 17.473 5.957 18.455 C 5.355 19.572 5.083 20.989 5.067 22.409 C 5.052 23.834 5.294 25.309 5.761 26.566 C 6.223 27.81 6.934 28.915 7.911 29.496 C 8.385 29.778 8.845 29.952 9.287 30.038 C 9.329 31.011 9.433 32.197 9.713 33.208 C 9.882 33.818 10.128 34.413 10.501 34.861 L 10.52 34.884 C 9.355 35.04 8.359 35.331 7.496 35.708 C 7.544 35.554 7.584 35.399 7.615 35.243 C 7.81 34.25 7.66 33.239 7.366 32.291 C 7.072 31.344 6.623 30.426 6.188 29.609 C 6.027 29.309 5.864 29.011 5.699 28.714 C 5.446 28.258 5.222 27.853 5.047 27.486 C 3.561 24.37 4.105 20.448 5.93 17.342 M 3.087 23.419 C 2.671 21.643 2.782 19.415 3.755 17.425 C 4.48 15.941 5.695 14.567 7.57 13.617 C 6.556 14.505 5.679 15.589 4.98 16.778 C 3.812 18.767 3.108 21.106 3.087 23.419 M 4.499 9.445 C 3.985 8.172 3.752 6.966 3.908 6.013 C 3.983 5.556 4.146 5.155 4.421 4.823 C 4.696 4.491 5.089 4.221 5.633 4.035 C 6.29 3.811 7.174 3.708 8.336 3.792 C 8.045 3.921 7.769 4.083 7.515 4.276 C 6.596 4.98 6.193 5.972 6.108 7.024 C 5.964 8.798 6.712 10.847 7.519 12.415 C 7.177 12.569 6.843 12.741 6.519 12.93 C 5.723 11.897 4.993 10.668 4.499 9.445 M 11.307 3.148 L 10.527 2.365 C 10.42 2.256 10.42 2.081 10.527 1.973 L 11.308 1.189 C 11.359 1.137 11.429 1.108 11.502 1.108 C 11.576 1.108 11.646 1.137 11.697 1.189 L 12.477 1.973 C 12.585 2.081 12.585 2.256 12.477 2.365 L 11.706 3.139 C 11.631 3.156 11.558 3.172 11.482 3.19 C 11.424 3.176 11.369 3.164 11.311 3.151 C 11.31 3.15 11.309 3.149 11.307 3.148 M 12.997 26.732 C 12.695 27.334 12.092 28.14 11.297 28.61 C 10.539 29.058 9.598 29.212 8.473 28.543 C 7.805 28.145 7.215 27.311 6.794 26.179 C 6.378 25.06 6.156 23.722 6.17 22.421 C 6.184 21.116 6.436 19.893 6.927 18.982 C 7.341 18.214 7.91 17.688 8.652 17.48 C 8.968 18.422 9.497 19.374 10.218 20.268 C 11.96 22.43 13.466 24.577 14.126 27.038 C 14.235 27.443 14.319 27.854 14.378 28.269 C 14.424 28.85 14.53 30.342 14.288 31.751 L 14.281 31.786 C 14.251 31.946 14.218 32.105 14.181 32.263 C 14.043 32.83 13.842 33.333 13.563 33.716 C 13.219 34.188 12.756 34.487 12.077 34.509 C 11.789 34.519 11.559 34.405 11.346 34.149 C 11.118 33.875 10.926 33.453 10.776 32.911 C 10.536 32.043 10.435 30.995 10.393 30.077 C 10.925 30.011 11.416 29.825 11.856 29.565 C 12.885 28.958 13.615 27.962 13.982 27.232 Z M 14.009 11.234 C 13.304 11.17 12.657 11.187 12.071 11.278 C 10.756 11.399 9.587 11.65 8.551 12.007 C 7.76 10.494 7.085 8.618 7.207 7.114 C 7.273 6.295 7.571 5.627 8.184 5.157 C 8.812 4.676 9.851 4.343 11.52 4.38 L 11.658 4.383 L 11.658 4.375 C 13.126 4.37 14.09 4.692 14.71 5.158 C 15.351 5.639 15.692 6.324 15.812 7.148 C 16.001 8.443 15.628 10.013 15.055 11.382 C 14.757 11.325 14.457 11.281 14.156 11.249 L 14.157 11.244 C 14.108 11.241 14.058 11.237 14.009 11.234 M 17.348 4.035 C 17.899 4.222 18.297 4.493 18.578 4.826 C 18.859 5.16 19.028 5.562 19.108 6.019 C 19.275 6.972 19.054 8.177 18.55 9.449 C 18.206 10.316 17.741 11.187 17.215 11.989 C 16.864 11.855 16.506 11.737 16.144 11.636 C 16.725 10.191 17.122 8.49 16.903 6.987 C 16.751 5.941 16.294 4.964 15.371 4.271 C 15.12 4.084 14.85 3.925 14.565 3.797 C 15.763 3.705 16.673 3.807 17.348 4.035 M 22.5 11 L 27.814 39.505 C 27.545 37.648 26.935 36.059 26.293 34.5 C 26.217 34.315 26.141 34.132 26.064 33.948 C 24.848 31.019 23.597 28.008 24.039 23.065 C 24.177 21.512 23.885 19.083 22.677 16.816 C 21.774 15.119 20.357 13.514 18.238 12.442 C 18.76 11.626 19.223 10.745 19.574 9.859 C 20.113 8.5 20.412 7.07 20.194 5.827 C 19.968 4.536 19.187 3.489 17.701 2.985 C 16.652 2.63 15.271 2.553 13.509 2.801 C 13.775 2.28 13.691 1.625 13.257 1.189 L 12.477 0.406 C 12.219 0.146 11.868 0 11.502 0 C 11.136 0 10.786 0.146 10.528 0.406 L 9.748 1.189 C 9.312 1.627 9.229 2.284 9.498 2.806 C 7.718 2.551 6.329 2.627 5.278 2.986 C 3.798 3.49 3.031 4.541 2.82 5.833 C 2.616 7.075 2.929 8.504 3.477 9.862 C 4.002 11.161 4.765 12.45 5.594 13.539 C 4.312 14.49 3.387 15.664 2.765 16.937 C 1.355 19.822 1.543 23.149 2.586 25.326 C 3.403 27.03 3.899 28.119 4.147 28.937 C 4.386 29.724 4.381 30.212 4.221 30.729 C 4.064 31.235 3.76 31.776 3.281 32.626 L 3.279 32.63 C 3.214 32.744 3.147 32.865 3.076 32.991 C 2.491 34.035 1.733 35.433 0.849 37.485 C -1.001 41.781 0.389 47.004 2.93 50.915 C 4.208 52.882 5.803 54.562 7.49 55.665 C 9.036 56.676 10.712 57.234 12.305 57.012 L 12.31 57.02 L 12.496 56.982 C 12.567 56.969 12.638 56.955 12.709 56.939 L 12.78 56.925 C 13.573 56.766 16.548 56.168 19.628 54.625 C 22.803 53.034 26.185 50.389 27.319 46.09 C 28.008 43.476 28.084 41.369 27.814 39.505" fill="var(--token-7ffc722e-7a47-4be4-8bdb-43ec77797c4a, rgb(255,255,255)) /* {&quot;name&quot;:&quot;Black&quot;} */"/></svg>